<?xml version="1.0" standalone="no"?>
<svg version="1.0" xmlns="http://www.w3.org/2000/svg" width="162pt" height="152pt" viewBox="0 0 162 152" preserveAspectRatio="xMidYMid meet">
<rect width="162" height="152" fill="white"/>
<g transform="translate(0.000000,152.000000) scale(0.100000,-0.100000)"
fill="#dddddd" stroke="none">
<path d="M0 476 l0 -476 810 0 810 0 0 234 0 233 -37 6 c-21 3 -52 8 -69 12
l-31 7 -6 -61 c-7 -81 -17 -91 -84 -91 -87 0 -93 6 -93 106 0 67 -3 86 -15 91
-23 8 -26 2 -37 -84 -6 -43 -15 -84 -21 -91 -14 -18 -238 -12 -261 7 -9 7 -16
27 -16 43 0 22 7 33 30 46 27 15 30 22 31 70 1 28 2 57 3 64 1 6 -12 15 -29
20 -16 5 -57 17 -90 27 -174 54 -237 72 -239 69 -2 -1 -11 -28 -20 -58 -37
-117 -34 -113 -87 -107 -60 7 -109 32 -109 55 0 9 11 51 24 94 l23 76 -23 5
c-20 3 -25 -4 -49 -72 -15 -42 -32 -79 -39 -83 -18 -12 -62 -9 -113 8 -36 12
-51 14 -65 5 -44 -27 -98 5 -98 58 0 32 30 61 62 61 12 0 21 16 33 56 9 31 15
57 13 58 -2 1 -37 15 -78 30 -41 16 -87 35 -102 43 l-28 14 0 -475z"/>
</g>
<g transform="translate(0.000000,152.000000) scale(0.100000,-0.100000)"
fill="#888888" stroke="black" stroke-width="36">
<path d="M322 1073 c-6 -15 -32 -89 -57 -163 -25 -74 -49 -144 -54 -155 -6
-14 -3 -32 8 -55 13 -28 25 -36 66 -47 28 -7 57 -10 65 -8 17 5 145 374 138
395 -2 7 -29 22 -59 32 -93 33 -95 33 -107 1z"/>
<path d="M602 1007 c-16 -19 -133 -398 -126 -408 3 -5 23 -13 46 -19 32 -9 43
-9 53 2 6 7 37 98 69 201 61 199 62 217 12 217 -12 0 -27 5 -32 10 -8 8 -14 7
-22 -3z"/>
<path d="M1084 817 c-14 -16 -19 -51 -35 -226 -10 -118 -10 -134 5 -150 9 -10
16 -25 16 -34 0 -13 9 -17 38 -17 20 0 46 -3 57 -5 11 -3 25 -2 32 3 22 14 55
414 36 425 -5 3 -37 8 -73 11 -49 5 -68 3 -76 -7z"/>
<path d="M1346 718 c-4 -51 -8 -149 -9 -218 l-2 -125 50 0 50 0 6 65 c4 36 8
133 10 215 l4 150 -52 3 -51 3 -6 -93z"/>
</g>
<g transform="translate(0.000000,152.000000) scale(0.100000,-0.100000)"
fill="#000000" stroke="none">
<path d="M652 1504 c9 -9 21 -13 27 -10 20 13 11 26 -16 26 -25 0 -26 -1 -11
-16z"/>
<path d="M837 1507 c-3 -9 0 -22 6 -32 17 -22 49 -9 45 19 -4 25 -43 34 -51
13z"/>
<path d="M191 1496 c-15 -18 -3 -46 19 -46 10 0 21 7 24 16 6 16 -9 44 -24 44
-4 0 -13 -6 -19 -14z"/>
<path d="M1237 1454 c-4 -4 -7 -16 -7 -26 0 -13 7 -18 26 -18 21 0 25 4 22 22
-3 23 -27 35 -41 22z"/>
<path d="M552 1398 c-7 -7 -12 -17 -12 -24 0 -19 32 -26 48 -10 13 12 13 18 2
30 -15 19 -22 20 -38 4z"/>
<path d="M336 1361 c-11 -18 6 -42 28 -39 29 4 29 42 -1 46 -11 2 -24 -1 -27
-7z"/>
<path d="M1112 1301 c-20 -12 -10 -46 13 -46 14 0 20 7 20 24 0 27 -13 35 -33
22z"/>
<path d="M903 1283 c-18 -7 -16 -42 2 -49 24 -10 47 14 34 37 -10 19 -15 21
-36 12z"/>
<path d="M1457 1234 c-4 -4 -7 -18 -7 -31 0 -20 5 -24 23 -21 16 2 22 10 22
28 0 24 -23 39 -38 24z"/>
<path d="M513 1193 c-21 -8 -15 -41 8 -48 25 -8 42 6 37 31 -3 19 -23 27 -45
17z"/>
<path d="M954 1155 c-9 -23 3 -45 26 -45 25 0 37 25 20 45 -16 19 -39 19 -46
0z"/>
<path d="M304 1135 c-4 -9 -2 -21 4 -27 15 -15 54 1 50 20 -4 23 -46 28 -54 7z"/>
<path d="M1233 1133 c-17 -6 -17 -38 0 -52 10 -8 17 -7 25 1 26 26 7 62 -25
51z"/>
<path d="M776 1045 c-7 -20 3 -45 19 -45 7 0 18 7 25 15 10 12 10 18 0 30 -7
8 -18 15 -25 15 -7 0 -15 -7 -19 -15z"/>
<path d="M1380 1035 c-16 -19 -6 -45 18 -45 31 0 46 25 27 44 -20 20 -29 20
-45 1z"/>
<path d="M0 989 c0 -27 6 -37 28 -47 36 -18 181 -72 192 -72 4 0 13 13 18 30
6 16 8 29 4 27 -4 -1 -20 3 -37 9 -143 54 -182 69 -192 77 -10 7 -13 1 -13
-24z"/>
<path d="M1104 985 c-4 -9 -2 -21 4 -27 15 -15 44 -1 40 19 -4 23 -36 29 -44
8z"/>
<path d="M1594 985 c-3 -8 -3 -19 1 -25 11 -18 25 -11 25 15 0 27 -17 34 -26
10z"/>
<path d="M1045 860 c-8 -25 1 -40 25 -40 19 0 36 32 25 50 -11 17 -43 11 -50
-10z"/>
<path d="M443 815 c-8 -26 -8 -35 0 -35 7 0 22 -3 33 -6 17 -5 24 0 32 24 9
25 8 31 -6 35 -10 3 -24 8 -33 11 -11 5 -18 -2 -26 -29z"/>
<path d="M660 767 c0 -9 -2 -22 -6 -30 -6 -16 11 -24 136 -61 47 -14 116 -34
154 -45 37 -12 72 -21 76 -21 4 0 10 13 12 29 l4 29 -130 36 c-72 20 -140 41
-151 46 -11 4 -29 10 -40 13 -11 3 -28 8 -37 12 -13 5 -18 2 -18 -8z"/>
<path d="M1250 584 c0 -27 5 -34 30 -43 26 -9 30 -8 30 9 0 10 2 24 5 32 3 8
-7 17 -30 24 l-35 11 0 -33z"/>
<path d="M1470 538 c0 -34 2 -35 53 -47 28 -6 62 -14 75 -17 20 -6 22 -3 22
29 l0 35 -62 7 c-35 4 -69 12 -75 17 -10 8 -13 2 -13 -24z"/>
</g>
</svg>
