<?xml version="1.0" standalone="no"?>
<!DOCTYPE svg PUBLIC "-//W3C//DTD SVG 20010904//EN"
 "http://www.w3.org/TR/2001/REC-SVG-20010904/DTD/svg10.dtd">
<svg version="1.0" xmlns="http://www.w3.org/2000/svg"
 width="920.000000pt" height="920.000000pt" viewBox="0 0 920.000000 920.000000"
 preserveAspectRatio="xMidYMid meet">
<metadata>
Created by potrace 1.16, written by Peter Selinger 2001-2019
</metadata>
<rect width="920" height="920" fill="white"/>
<g transform="translate(0.000000,920.000000) scale(0.100000,-0.100000)"
fill="#000000" stroke="none">
<path d="M1877 7723 c-5 -4 -54 -8 -111 -9 -90 -1 -110 -5 -157 -28 -55 -27
-142 -103 -168 -147 -23 -38 -45 -83 -49 -99 -13 -56 -16 -500 -15 -2700 l0
-2475 27 -54 c15 -29 33 -60 39 -69 27 -35 113 -112 124 -112 7 0 13 -4 13 -9
0 -5 8 -11 18 -14 9 -3 37 -13 62 -22 41 -16 180 -17 1700 -15 910 1 2130 2
2710 4 l1055 3 48 22 c26 12 47 26 47 32 0 6 4 8 8 5 5 -3 32 17 61 45 28 27
48 49 44 49 -4 0 -1 6 7 13 21 16 63 136 74 212 3 17 7 41 10 55 3 14 7 37 8
53 1 15 5 27 9 27 4 0 6 11 4 25 -1 14 1 25 4 25 4 0 8 12 8 28 3 44 8 76 15
87 3 6 4 18 3 28 -2 9 0 17 4 17 4 0 7 10 8 23 2 48 8 87 13 87 3 0 7 10 7 23
3 43 9 82 15 92 3 6 4 18 3 28 -2 9 0 17 5 17 4 0 6 9 3 20 -3 11 -1 20 3 20
5 0 10 17 11 38 2 55 7 82 13 82 3 0 6 10 6 23 1 12 4 38 8 57 4 19 9 49 11
65 3 17 7 41 10 55 13 57 17 77 20 105 2 17 4 30 5 30 2 0 4 9 5 20 2 11 6 34
9 50 4 17 9 44 11 60 3 17 7 41 11 55 7 34 15 80 17 108 0 12 4 22 7 22 3 0 6
10 7 23 2 43 16 122 22 127 3 3 7 19 8 35 2 17 4 45 5 62 2 18 7 33 11 33 5 0
6 4 2 9 -3 5 -1 13 5 16 8 5 7 11 -1 21 -6 8 -7 14 -2 14 5 0 10 6 11 13 5 47
11 92 13 92 2 0 10 44 12 73 1 12 5 22 8 22 3 0 4 11 1 25 -2 14 0 25 5 25 6
0 9 11 8 25 -2 14 0 25 5 25 4 0 6 11 5 25 -2 14 1 27 5 30 5 3 7 12 4 20 -3
8 -2 20 2 27 5 7 9 24 10 38 1 14 3 27 4 30 1 3 2 9 1 13 -1 4 3 17 9 27 8 15
8 20 -1 20 -8 0 -8 4 1 15 6 8 9 19 6 24 -4 5 -2 12 4 16 6 4 8 11 5 16 -4 5
-3 15 2 22 4 6 8 20 9 30 1 9 2 18 4 20 1 1 3 18 5 37 5 49 15 102 22 120 3 8
7 26 8 40 1 14 4 26 5 28 1 1 3 10 4 20 1 9 5 23 9 30 5 7 4 12 -3 12 -6 0 -8
5 -3 13 4 6 9 19 10 27 12 59 15 78 16 103 1 15 4 27 7 27 3 0 6 8 7 18 1 9 4
33 8 52 4 19 7 45 8 58 1 12 3 22 7 22 3 0 6 12 7 28 3 49 9 87 15 97 3 6 4
18 3 28 -2 9 1 17 6 17 4 0 6 7 3 15 -4 8 -1 22 6 30 9 11 9 15 1 15 -8 0 -9
5 -2 18 5 10 13 41 16 68 4 27 9 59 11 72 2 12 6 32 8 45 6 35 19 131 19 145
0 6 3 12 6 12 4 0 6 12 5 28 -1 15 -3 27 -4 27 -1 0 -4 14 -6 30 -3 17 -9 32
-15 33 -5 2 -9 10 -9 19 0 17 -30 74 -45 85 -5 4 -6 8 -2 8 13 0 -57 66 -99
93 -40 27 -138 63 -189 70 -17 2 -29 10 -28 16 2 6 -1 11 -7 11 -6 0 -6 9 0
25 6 16 6 25 -1 25 -6 0 -6 6 0 18 6 11 6 24 1 32 -5 9 -5 19 2 27 6 7 6 13 1
13 -5 0 -9 9 -9 20 0 11 4 20 9 20 5 0 5 6 -2 13 -8 10 -7 17 1 25 9 9 9 12
-1 12 -11 0 -11 3 -1 15 7 8 8 15 3 15 -5 0 -9 9 -9 20 0 11 4 20 9 20 4 0 5
6 1 12 -11 18 -12 48 -2 48 5 0 6 6 1 13 -4 6 -8 23 -9 37 -5 65 -9 90 -14 90
-4 0 -7 6 -7 13 -1 20 -50 107 -57 100 -3 -3 -6 -1 -6 5 0 11 -31 44 -77 82
-31 26 -106 57 -149 62 -23 3 -46 8 -52 12 -6 3 -13 2 -17 -4 -4 -6 -12 -7
-18 -3 -7 5 -794 8 -1751 9 l-1738 1 -20 24 c-32 41 -103 140 -113 160 -5 11
-13 19 -17 19 -5 0 -8 7 -8 15 0 8 -4 15 -10 15 -5 0 -10 7 -10 15 0 8 -4 15
-10 15 -5 0 -10 5 -10 10 0 13 -96 138 -131 170 -90 82 -88 82 -374 84 -135 0
-245 4 -245 7 0 4 -19 3 -42 -1 -23 -5 -52 -4 -64 0 -12 5 -24 6 -27 4 -5 -6
-67 -7 -212 -4 -11 0 -31 0 -45 -1 -14 0 -31 0 -37 0 -7 1 -21 1 -30 1 -41 1
-99 1 -110 1 -7 -1 -32 -1 -55 -1 -51 0 -123 -1 -241 -3 -48 -1 -88 2 -90 6
-1 5 -6 5 -10 0z m1405 -297 c13 -15 33 -40 45 -55 13 -14 23 -31 23 -38 0 -6
4 -13 9 -15 4 -1 32 -39 62 -83 29 -44 56 -81 61 -83 4 -2 8 -9 8 -15 0 -7 15
-28 33 -48 17 -21 39 -45 48 -55 24 -29 68 -64 108 -88 35 -21 44 -21 563 -21
290 0 530 -4 534 -7 4 -4 14 -4 23 1 20 10 92 8 110 -3 8 -6 12 -5 8 0 -3 6
44 9 114 9 65 0 119 -4 119 -8 0 -5 6 -5 13 0 18 11 241 10 249 -2 5 -7 8 -7
8 0 0 9 312 13 345 5 6 -1 12 -1 15 0 16 7 210 4 210 -3 0 -5 8 -3 17 4 15 12
16 12 8 -1 -7 -12 -6 -13 6 -3 15 12 36 12 56 0 6 -4 14 -4 16 0 6 10 249 9
265 -1 7 -4 12 -3 12 1 0 5 38 8 85 8 47 0 85 -4 85 -8 0 -5 5 -5 12 -1 17 11
58 11 58 1 0 -4 8 -4 18 0 16 8 26 8 92 0 14 -1 27 0 30 4 3 4 27 3 53 -1 26
-4 50 -3 53 1 2 5 10 6 17 4 25 -9 117 -11 117 -2 0 4 4 6 9 2 6 -3 82 -7 170
-10 175 -4 198 -11 225 -66 8 -15 13 -44 12 -64 -1 -19 1 -35 4 -35 3 0 5 -81
6 -180 l1 -180 -31 -1 c-17 0 -1154 -1 -2527 -3 l-2496 -2 -77 -38 c-88 -44
-186 -133 -186 -171 0 -7 -4 -16 -8 -19 -5 -3 -15 -31 -22 -63 -17 -72 -14
-59 -25 -118 -9 -53 -11 -64 -14 -67 -2 -2 -4 -14 -7 -28 -2 -14 -9 -48 -14
-76 -6 -28 -13 -64 -16 -80 -2 -16 -9 -51 -14 -79 -6 -27 -12 -61 -15 -75 -3
-14 -7 -38 -9 -55 -2 -16 -7 -37 -10 -45 -3 -8 -7 -31 -10 -50 -3 -19 -12 -71
-20 -115 -9 -44 -18 -98 -22 -120 -3 -22 -8 -44 -11 -48 -3 -5 -7 -25 -9 -45
-2 -20 -6 -48 -9 -62 -3 -14 -8 -38 -11 -55 -3 -16 -7 -41 -10 -55 -3 -14 -6
-33 -6 -42 1 -10 -4 -20 -9 -23 -5 -4 -7 -10 -4 -15 3 -5 1 -27 -4 -47 -6 -21
-12 -54 -15 -73 -3 -19 -8 -46 -11 -60 -3 -14 -8 -36 -10 -50 -5 -33 -13 -79
-20 -110 -3 -14 -8 -40 -11 -59 -2 -19 -9 -52 -15 -75 -6 -23 -12 -57 -13 -76
-2 -19 -6 -44 -9 -55 -7 -22 -8 -27 -38 -190 -11 -60 -23 -113 -27 -117 -4 -4
-8 108 -9 249 -1 141 -4 262 -7 270 -3 7 -1 13 4 13 5 0 7 8 5 18 -4 24 -8 84
-5 97 3 17 -1 79 -7 99 -3 12 -1 16 6 12 7 -5 8 0 2 16 -4 13 -5 35 -1 50 5
14 5 29 2 32 -8 9 -8 86 0 86 4 0 5 6 3 13 -9 25 -12 96 -4 108 4 7 5 18 2 23
-9 14 -10 158 -1 177 4 9 5 19 1 22 -5 6 -8 199 -3 222 1 6 1 15 0 20 -5 27
-1 235 5 244 3 6 2 11 -3 11 -7 0 -8 61 -1 96 1 5 0 11 -1 14 -5 12 -4 90 1
90 7 0 2 67 -6 80 -3 6 -2 10 4 10 7 0 7 8 2 23 -4 12 -5 33 -1 47 4 14 4 34
0 45 -4 11 -4 29 0 40 4 11 4 29 0 40 -4 11 -4 29 0 40 4 11 3 35 -1 54 -4 19
-4 42 1 52 5 9 7 18 5 21 -4 4 -6 45 -4 118 1 25 0 50 -1 55 -1 6 -2 15 0 20
1 6 1 60 0 120 0 61 0 117 0 125 0 8 0 140 1 292 l0 278 30 27 c69 66 15 62
840 60 l748 -2 23 -29z m4470 -1326 c46 -48 58 -77 52 -131 -3 -30 -6 -60 -6
-66 -1 -7 -4 -13 -7 -13 -3 0 -6 -10 -7 -22 -1 -46 -14 -111 -24 -123 -8 -9
-8 -15 0 -20 7 -4 7 -12 -1 -27 -6 -11 -9 -29 -6 -39 3 -10 1 -19 -4 -19 -5 0
-8 -10 -8 -22 1 -13 -2 -34 -5 -48 -3 -14 -7 -37 -8 -52 -1 -16 -5 -28 -9 -28
-3 0 -5 -12 -4 -27 1 -16 -2 -34 -8 -40 -5 -7 -6 -13 -2 -13 4 0 1 -8 -6 -17
-12 -14 -12 -15 -1 -9 11 7 12 4 4 -10 -5 -11 -7 -25 -5 -31 3 -7 1 -13 -4
-13 -4 0 -9 -12 -10 -27 -1 -16 -4 -39 -7 -53 -6 -31 -16 -87 -20 -120 -2 -14
-5 -26 -6 -27 -1 -2 -3 -11 -4 -20 -1 -10 -4 -23 -8 -28 -4 -6 -5 -23 -4 -38
2 -15 -1 -27 -5 -27 -5 0 -8 -3 -7 -7 1 -5 -2 -33 -7 -63 -4 -30 -9 -64 -11
-75 -1 -11 -3 -21 -3 -22 -1 -2 -1 -6 0 -9 0 -4 -5 -11 -13 -15 -10 -7 -10 -9
0 -9 7 0 10 -5 6 -12 -4 -6 -8 -21 -10 -32 -2 -12 -7 -37 -10 -56 -4 -19 -8
-45 -8 -57 -1 -13 -4 -23 -7 -23 -4 0 -6 -8 -6 -17 0 -43 -3 -54 -15 -47 -7 5
-8 3 -2 -7 11 -18 14 -39 5 -39 -4 0 -8 -12 -9 -27 -1 -16 -5 -39 -8 -53 -3
-14 -8 -43 -11 -65 -3 -22 -10 -46 -15 -52 -7 -9 -7 -13 1 -13 8 0 9 -5 2 -18
-8 -15 -19 -70 -23 -119 -1 -7 -4 -13 -7 -13 -3 0 -7 -12 -7 -27 -1 -16 -5
-46 -9 -68 -5 -22 -9 -51 -9 -65 -1 -14 -7 -30 -15 -36 -11 -8 -11 -13 -2 -18
8 -5 9 -12 2 -19 -10 -13 -11 -16 -11 -53 0 -14 -3 -23 -7 -21 -5 3 -8 -11 -9
-31 -1 -60 -15 -126 -27 -134 -9 -6 -8 -8 1 -8 7 0 10 -5 7 -10 -4 -6 -8 -22
-11 -35 -2 -14 -7 -37 -10 -52 -3 -16 -7 -41 -9 -58 -2 -16 -4 -30 -5 -30 -4
0 -11 -42 -12 -67 -1 -16 -5 -28 -8 -28 -4 0 -6 -11 -5 -25 2 -14 0 -27 -5
-30 -5 -3 -7 -16 -5 -30 1 -14 -1 -25 -4 -25 -3 0 -7 -15 -9 -33 -4 -47 -7
-66 -14 -73 -4 -3 -4 -12 -1 -20 3 -8 1 -14 -5 -14 -5 0 -8 -13 -6 -30 2 -17
-1 -30 -7 -30 -8 0 -7 -5 1 -15 7 -8 8 -15 3 -15 -5 0 -10 -6 -11 -12 -2 -23
-10 -72 -18 -113 -4 -22 -8 -49 -10 -60 -1 -11 -3 -20 -4 -20 -3 0 -10 -38
-16 -80 -3 -22 -11 -46 -17 -54 -10 -12 -9 -13 2 -6 10 6 12 4 6 -5 -8 -13
-15 -46 -18 -90 -1 -14 -6 -31 -10 -38 -5 -7 -6 -19 -3 -27 3 -8 2 -15 -3 -15
-4 0 -8 -6 -8 -12 -2 -27 -18 -128 -27 -163 -2 -11 -5 -27 -6 -35 -3 -45 -35
-58 -175 -67 -153 -11 -4898 -13 -4911 -2 -7 5 -15 6 -18 1 -5 -9 -67 -9 -82
1 -6 3 -16 2 -24 -3 -8 -5 -22 -4 -33 2 -15 8 -18 7 -12 -3 6 -8 4 -10 -5 -4
-7 5 -41 10 -74 12 -34 2 -70 5 -81 7 -11 3 -23 5 -27 5 -4 1 -15 15 -24 33
-16 30 -15 94 1 168 3 14 7 41 10 60 2 19 6 44 9 55 8 39 38 200 42 230 5 28
16 91 29 160 4 17 8 41 10 55 8 46 26 145 30 165 2 11 9 45 14 75 6 30 14 66
17 80 3 14 7 41 10 60 2 19 11 69 19 110 24 126 31 161 40 215 5 31 11 61 21
105 2 14 7 39 9 55 3 17 8 41 11 55 3 14 7 36 9 50 1 14 3 25 5 25 1 0 3 11 5
25 3 29 12 78 25 136 5 23 12 56 14 75 3 19 7 45 10 59 3 14 8 36 11 50 7 33
12 60 19 101 3 19 8 45 11 59 3 14 8 40 11 59 3 18 7 41 9 50 1 9 10 54 19
101 9 47 18 96 22 110 3 14 7 42 9 63 3 21 7 43 10 48 3 4 8 21 10 36 2 16 6
39 9 53 3 14 7 39 10 55 5 33 12 65 26 140 14 70 17 87 25 131 4 22 8 44 9 49
2 6 7 33 11 60 10 57 12 64 15 68 1 1 3 11 5 22 1 11 5 35 9 53 3 17 8 44 11
60 3 15 7 38 10 52 3 14 7 37 10 52 3 15 12 58 20 95 9 37 17 82 19 98 6 55
19 90 39 108 11 9 20 17 21 18 1 1 321 3 711 6 391 3 711 5 712 6 1 1 885 2
1966 2 1705 -1 1966 -3 1979 -15z"/>
</g>
</svg>
