<?xml version="1.0" standalone="no"?>
<!DOCTYPE svg PUBLIC "-//W3C//DTD SVG 20010904//EN"
 "http://www.w3.org/TR/2001/REC-SVG-20010904/DTD/svg10.dtd">
<svg version="1.0" xmlns="http://www.w3.org/2000/svg"
 width="544.000000pt" height="544.000000pt" viewBox="0 0 544.000000 544.000000"
 preserveAspectRatio="xMidYMid meet">
<metadata>
Created by potrace 1.16, written by Peter Selinger 2001-2019
</metadata>
<rect width="544" height="544" fill="white"/>
<g transform="translate(0.000000,544.000000) scale(0.100000,-0.100000)"
fill="#000000" stroke="none">
<path d="M4530 5221 c-126 -24 -241 -84 -335 -176 -60 -59 -135 -163 -135
-188 0 -7 -4 -17 -8 -22 -21 -23 -45 -135 -48 -218 -7 -184 55 -346 181 -473
190 -191 470 -245 714 -138 180 80 326 259 366 451 19 90 13 239 -13 320 -82
258 -313 437 -580 448 -53 2 -117 0 -142 -4z m230 -223 c151 -45 275 -187 298
-341 29 -187 -66 -366 -235 -449 -223 -108 -495 3 -583 240 -27 71 -30 184 -7
262 64 220 308 353 527 288z"/>
<path d="M482 4271 l3 -106 530 0 530 0 0 105 0 105 -533 1 -533 1 3 -106z"/>
<path d="M2281 4368 c-104 -16 -150 -51 -418 -321 -289 -291 -314 -327 -315
-469 -2 -230 212 -409 440 -366 97 18 144 51 333 239 l180 179 191 0 c105 0
189 -2 187 -5 -2 -2 -184 -186 -404 -407 -433 -435 -443 -448 -483 -593 -35
-131 -11 -289 61 -404 19 -30 172 -192 350 -370 l317 -316 1 -470 c1 -500 3
-533 51 -620 73 -135 207 -219 359 -224 124 -4 229 37 316 125 68 69 98 128
120 234 3 14 6 286 6 605 0 633 0 633 -59 739 -15 27 -112 133 -221 243 l-194
196 233 234 c128 128 235 233 238 233 3 0 4 -71 4 -157 -1 -121 2 -171 15
-219 43 -152 153 -261 306 -301 50 -13 133 -16 480 -17 231 -1 445 2 475 7 80
12 155 50 212 108 180 184 125 489 -106 595 -74 34 -104 37 -378 38 -135 1
-249 4 -253 7 -3 4 -6 176 -6 383 -1 207 -5 395 -10 419 -24 108 -62 159 -284
381 -117 117 -233 225 -259 240 -103 60 -82 59 -786 60 -355 1 -669 -1 -699
-6z m1357 -227 c54 -28 422 -395 448 -447 18 -37 19 -68 20 -529 l0 -490 375
-5 c345 -5 376 -6 402 -24 44 -30 69 -73 72 -124 4 -59 -16 -104 -63 -140
l-35 -27 -448 -2 c-495 -3 -486 -4 -556 61 -65 59 -66 72 -66 527 -1 401 -1
408 -20 392 -23 -22 -914 -912 -946 -946 l-23 -26 258 -260 c143 -143 268
-278 279 -298 19 -37 20 -57 20 -629 l0 -591 -30 -49 c-36 -58 -92 -92 -164
-101 -97 -11 -199 64 -221 164 -5 21 -9 261 -9 533 l-1 494 -349 351 c-323
324 -350 354 -370 408 -31 85 -28 166 7 242 25 53 98 130 605 637 317 317 573
578 569 580 -4 2 -226 3 -493 3 l-486 -1 -197 -197 c-108 -108 -210 -204 -226
-212 -37 -19 -103 -19 -139 0 -75 38 -109 132 -76 205 26 57 479 504 524 516
19 5 309 9 665 8 630 -1 631 -1 674 -23z"/>
<path d="M162 3523 l3 -107 477 -1 478 0 0 108 0 107 -480 0 -481 0 3 -107z"/>
<path d="M887 2564 c-1 -1 -20 -4 -42 -7 -140 -20 -260 -111 -323 -247 -60
-127 -51 -270 24 -397 14 -25 186 -205 383 -401 383 -383 413 -407 534 -432
64 -13 163 -7 217 13 92 34 134 69 388 321 l262 260 -76 77 -75 76 -248 -248
c-146 -146 -265 -256 -290 -269 -54 -29 -133 -30 -185 -3 -51 26 -719 694
-742 741 -22 46 -22 130 -1 175 47 98 150 145 255 117 42 -12 74 -40 313 -277
l266 -263 171 171 c95 94 172 174 172 178 0 3 -33 39 -73 79 l-72 72 -100
-100 -99 -99 -197 194 c-219 217 -262 246 -392 263 -37 5 -68 8 -70 6z"/>
</g>
</svg>
