<?xml version="1.0" standalone="no"?>
<!DOCTYPE svg PUBLIC "-//W3C//DTD SVG 20010904//EN"
 "http://www.w3.org/TR/2001/REC-SVG-20010904/DTD/svg10.dtd">
<svg version="1.0" xmlns="http://www.w3.org/2000/svg"
 width="183pt" height="183pt" viewBox="0 0 183 183"
 preserveAspectRatio="xMidYMid meet">
<metadata>
Created by potrace 1.16, written by Peter Selinger 2001-2019
</metadata>
<rect width="183" height="183" fill="white"/>
<g transform="translate(7.5,183.000000) scale(0.100000,-0.100000)"
fill="#000000" stroke="none">
<path d="M1217 1639 c-20 -5 -88 -30 -150 -56 -111 -47 -113 -47 -232 -49
-153 -2 -227 9 -345 54 -121 45 -183 49 -247 16 -57 -28 -86 -69 -106 -144
-24 -96 -7 -183 50 -250 33 -40 147 -125 223 -167 288 -158 280 -151 320 -296
30 -109 32 -242 5 -397 -3 -17 -7 -45 -10 -62 -11 -63 -34 -139 -48 -162 l-15
-23 -326 0 c-179 0 -329 -3 -333 -6 -3 -4 -3 -10 1 -14 3 -4 150 -7 325 -7
334 0 352 2 379 45 7 10 15 36 18 56 3 21 8 41 10 44 2 4 6 24 10 44 3 21 8
47 10 59 3 11 7 37 9 56 3 19 8 48 11 63 9 45 6 197 -6 252 -33 155 -75 223
-166 270 -22 11 -61 33 -89 49 -27 16 -70 40 -95 54 -63 35 -159 104 -198 143
-53 52 -66 86 -67 164 0 197 119 273 307 196 103 -43 172 -56 333 -65 97 -6
173 10 301 62 175 71 236 69 312 -9 85 -87 100 -189 43 -304 -53 -107 -144
-191 -300 -278 -31 -17 -81 -48 -113 -69 -73 -49 -82 -75 -73 -211 4 -56 9
-122 10 -147 10 -159 38 -290 78 -370 39 -79 85 -89 430 -94 153 -2 197 0 197
10 0 9 -36 13 -147 14 -345 4 -404 11 -441 51 -16 16 -26 40 -49 114 -19 65
-36 188 -50 365 -15 199 -11 209 118 283 122 71 229 145 270 188 79 81 144
225 134 295 -6 45 -41 115 -80 162 -56 65 -131 90 -218 71z"/>
</g>
</svg>
